# xmcd
#
# Track frame offsets:
#	150
#	14573
#	28599
#	40419
#	53690
#	67017
#	81050
#	97729
#	110235
#	125942
#	142752
#	155338
#	166987
#	177741
#	192837
#	208219
#
# Disc length: 2964 seconds
#
# Revision: 0
# Processed by: cddbd v1.5.2PL0 Copyright (c) Steve Scherf et al.
# Submitted via: dBpowerAMP V4.0
#
DISCID=e40b9210
DTITLE=Orchestra Paradoxx Music - Sucessos de Sempre
DYEAR=1900
DGENRE=Blues
TTITLE0=As Time Goes By
TTITLE1=Moon River
TTITLE2=I Can't Stop Loving You
TTITLE3=Smoke Gets is Your Eyes
TTITLE4=Raindrops Keep Falling on My Head
TTITLE5=The Wind Mills Of Your Mind
TTITLE6=The World We New
TTITLE7=I Say A Litle Prayer
TTITLE8=Theme From Love Store
TTITLE9=San Francisco (If you're going to)
TTITLE10=Moonlight Serenate
TTITLE11=All The Things You Are
TTITLE12=Red Roses For A Blue Lady
TTITLE13=Strangers In The Night
TTITLE14=Unchaimed Melody
TTITLE15=Pennsylvania
EXTD=
EXTT0=
EXTT1=
EXTT2=
EXTT3=
EXTT4=
EXTT5=
EXTT6=
EXTT7=
EXTT8=
EXTT9=
EXTT10=
EXTT11=
EXTT12=
EXTT13=
EXTT14=
EXTT15=
PLAYORDER=
